<?xml version="1.0" encoding="utf-8"?>
<!-- Generator: Adobe Illustrator 12.0.0, SVG Export Plug-In . SVG Version: 6.00 Build 51448)  -->
<!DOCTYPE svg PUBLIC "-//W3C//DTD SVG 1.1//EN" "http://www.w3.org/Graphics/SVG/1.1/DTD/svg11.dtd" [
	<!ENTITY ns_svg "http://www.w3.org/2000/svg">
	<!ENTITY ns_xlink "http://www.w3.org/1999/xlink">
]>
<svg  version="1.1" id="Layer_1" xmlns="&ns_svg;" xmlns:xlink="&ns_xlink;" width="1542.977" height="642.07"
	 viewBox="0 0 1542.977 642.07" overflow="visible" enable-background="new 0 0 1542.977 642.07" xml:space="preserve">
	<path id="y" fill="#99cc00" d="M1340.422,0l-115.031,247.926L1117.383,0H952.344L979.5,55.125
		c100.453,13.57,114.781,69.945,114.781,135.648v97.305l47.094,95.602v203.199h151.047V383.68L1494.445,0H1340.422" />
	<path id="a" fill="#ffcc00" d="M923.469,411.664c-37.758,0-42.688-36.129-42.688-65.699c0-73.895,42.688-68.973,100.18-71.43
		C980.961,319.703,991.641,411.664,923.469,411.664 M928.414,52c-44.352,0-82.125,7.398-108.391,27.102
		c-27.109,18.883-42.703,50.914-42.703,101h113.328c0-32.84,3.281-63.223,43.516-63.223c41.867,0,46.797,25.441,46.797,60.75
		v32.035c-64.68-1.008-128.75,0.742-169.57,32.063c40.141,42.609,38.555,124.016,38.555,182.984
		c0,17.102,0.141,36.145-0.57,55.609c8.594,1.805,17.953,2.789,28.125,2.789c50.078,0,83.758-20.535,108.391-63.238h1.641
		l4.922,55.016h107.57c-2.453-25.457-5.742-51.719-5.742-77.191V288.078L979.5,55.125C964.445,53.094,947.555,52,928.414,52z" />
	<path id="ay" fill="#999900" d="M979.5,55.125l114.781,232.953v-97.305C1094.281,125.07,1079.953,68.695,979.5,55.125" />
	<path id="b" fill="#000099" d="M737.188,423.895c0,103.777-7.352,147.09-49.031,147.09c-39.211,0-46.57-43.313-46.57-147.09
		c0-82.527-0.82-139.711,46.57-139.711C738,284.184,737.188,341.367,737.188,423.895 M767.469,350.895
		c0-54.656,16.852-88.41,43.922-109.168c-16.594-17.617-40.266-28.641-74.203-28.641c-41.672,0-70.273,12.25-93.969,47.383
		h-1.633V43.941H526.367v194.961c81.375,35.887,92.469,98.609,87.727,172.734h-87.727v41.586h84.563
		c-2.984,39.297-29.82,71.695-80.492,94.008c-1.313,0.602-2.711,1.191-4.07,1.777v84.887h109.5v-45.762h1.633
		c21.242,40.035,53.117,53.938,97.227,53.938c95.305,0,111.852-84.465,114.648-161.75
		C790.031,467.742,767.469,414.031,767.469,350.895z" />
	<path id="ba" fill="#cc6600" d="M849.945,424.711c0-58.969,1.586-140.375-38.555-182.984c-27.07,20.758-43.922,54.512-43.922,109.168
		c0,63.137,22.563,116.848,81.906,129.426C850.086,460.855,849.945,441.813,849.945,424.711" />
	<path id="e" fill="#ff0000" d="M307.047,269.117c99.867,0,96.891,50.387,96.891,85.664H211.656
		C211.656,323.824,210.164,269.117,307.047,269.117 M466.289,453.223l-1.281-0.137h-68.539c0,31.977-14.891,66.527-89.422,66.527
		c-92.414,0-95.391-64.781-95.391-107.977h314.711V238.902c-17.172-7.582-37.406-13.984-61.359-19.023
		c-41.094-8.648-92.789-13.383-157.961-13.383C29.82,206.496,0,291.438,0,390.773c0,113.73,35.766,193.641,307.047,193.641
		c62.406,0,115.773-6.207,158.602-15.711c22.891-5.105,43.492-12.184,60.719-19.695v-95.785H466.289z" />
	<path id="ebtop" fill="#990033" d="M610.93,453.223h-84.563v95.785c1.359-0.586,2.758-1.176,4.07-1.777
		C581.109,524.918,607.945,492.52,610.93,453.223" />
	<path id="ebbottom" fill="#990033" d="M614.094,411.637c4.742-74.125-6.352-136.848-87.727-172.734v172.734H614.094" />
	<path id="r" d="M1521.141,17.07v-3.855h3.633c1.617,0,3.352,0,3.352,1.734c0,1.699-0.656,2.16-2.516,2.121H1521.141 M1521.141,20.168
		h2.43l3.734,6.91h4.258l-4.094-6.91c2.977-0.379,4.594-1.609,4.594-4.715c0-1.734-0.453-3.598-1.984-4.551
		c-1.234-0.754-3.102-0.793-4.539-0.793h-8.117v16.969h3.719V20.168z M1523.547,38.984c10.648,0,19.43-8.738,19.43-19.441
		c0-10.695-8.781-19.441-19.43-19.441c-10.766,0-19.453,8.746-19.453,19.441C1504.094,30.246,1512.781,38.984,1523.547,38.984z
		 M1523.555,3.82c8.258,0,15.727,6.563,15.727,15.723c0,9.113-7.469,15.727-15.727,15.727c-8.367,0-15.719-6.613-15.719-15.727
		C1507.836,10.383,1515.188,3.82,1523.555,3.82z" />
</svg>
