<?xml version="1.0" encoding="utf-8"?>
<!-- Generator: Adobe Illustrator 12.0.0, SVG Export Plug-In  -->
<!DOCTYPE svg PUBLIC "-//W3C//DTD SVG 1.1//EN" "http://www.w3.org/Graphics/SVG/1.1/DTD/svg11.dtd" [
	<!ENTITY ns_flows "http://ns.adobe.com/Flows/1.0/">
	<!ENTITY ns_svg "http://www.w3.org/2000/svg">
	<!ENTITY ns_xlink "http://www.w3.org/1999/xlink">
]>
<svg  version="1.1" xmlns="&ns_svg;" xmlns:xlink="&ns_xlink;" xmlns:a="http://ns.adobe.com/AdobeSVGViewerExtensions/3.0/"
	 width="163" height="119" viewBox="-0.152 -0.21 163 119" enable-background="new -0.152 -0.21 163 119" xml:space="preserve">
<defs>
</defs>
<path fill-rule="evenodd" clip-rule="evenodd" fill="#182D89" d="M11.086,106.224c-0.331-0.797-0.796,0.199-1.261,0.331
	c-0.796,0.93-2.323,1.661-2.323,2.987c0.066,0.334,0.198,0.532,0.464,0.532c0.929,0.199,2.323,0.066,2.921-0.73
	C11.619,108.415,11.486,107.153,11.086,106.224 M15.336,98.124c-0.133,0.996-1.129,0.862-1.726,1.262
	c-0.864,0.663-0.864-0.995-1.66-0.399c-1.46,0.332-2.789,0.531-4.25,0.797c-0.465,0.93-0.531,1.992-0.929,2.922
	c-0.464,0.331-0.332,0.797-0.464,1.261c-0.266,0.399-0.399,0.797-0.465,1.328c1.394-0.2,2.656-0.797,4.249-0.929
	c0.399-0.133,0.93-0.199,1.395-0.332c0.199,0.133,0.331,0.332,0.531,0.529c1.062,0,2.257,0.134,2.722,1.13
	c-0.133,0.199,0.066,0.332,0.199,0.397c0,0.532,0.266,1.063,0.266,1.461h0.133c1.062-1.193,2.058-3.318,3.917-3.054
	c0.133,0.199,0.398,0.065,0.532,0.398c0.132,0.198,0,0.398-0.134,0.598c-0.398,0.398-0.597-0.331-0.996,0
	c-2.19,1.526-2.987,3.918-4.381,5.975c-0.199,0.135-0.598,0-0.664-0.199c-0.134-0.199-0.134-0.396,0-0.73
	c0.398-0.996,0.929-2.322,0.464-3.519c-0.199-0.397-0.266-0.995-0.797-1.195c-0.397,0.067-0.73-0.331-1.062,0
	c0.665,1.329,0.73,2.856-0.066,4.116c-0.93,1.263-2.324,1.662-3.851,1.527c-0.399-0.199-1.063-0.065-1.46-0.596
	c-0.399-0.334-0.531-0.798-0.73-1.33c0.133-0.131,0.133-0.331,0.133-0.53c0.066-0.397,0.531-0.597,0.531-0.995
	c0.598-0.863,1.394-1.462,2.058-2.192c-1.261,0.067-2.522,0.399-3.651,0.931c-0.93,2.191-1.859,4.448-2.39,6.839
	c-0.066,0.464,0.465,0.929-0.199,0.996c-0.464-0.399-0.598-0.931-0.598-1.528c0.2-0.398,0.332-1.062,0.399-1.594
	c0.397-1.394,0.929-2.854,1.592-4.314l-0.266-0.199c-0.996,0.331-2.124,0.53-3.252,0.398c-0.133-0.199-0.332-0.398-0.464-0.598
	c0.133-0.2,0.464-0.2,0.464-0.397c1.328,0.065,2.656-0.333,3.983-0.665c0.665-1.859,1.394-3.584,1.992-5.378
	c-0.332-0.397-0.73,0.133-1.062,0c-0.665,0.133-1.329,0.333-1.927,0.333c-0.664,0.331-1.46,0.198-2.19,0.198
	c-0.332-0.333-0.598-0.729-0.332-1.129c0.863-0.531,1.659,0.332,2.522-0.133c0.997-0.198,2.191-0.266,3.188-0.598
	c0.133-0.132,0.133-0.331,0.133-0.53c0.266-0.065,0.797-0.2,0.929,0.332c2.39-0.332,4.647-1.128,7.237-1.063L15.336,98.124"/>
<path fill-rule="evenodd" clip-rule="evenodd" fill="#182D89" d="M62.209,108.216c0-0.466,0.2-1.262-0.398-1.461
	c-0.332,0.199-0.53,0.53-0.73,0.729c-0.398,0.532-0.664,1.327-0.863,1.859c0.2,0.266,0,0.995,0.532,0.93
	C61.479,109.741,61.877,108.946,62.209,108.216 M66.525,107.153c-0.2,0.132-0.267,0-0.399-0.199
	c-0.332-0.134-0.797-0.332-0.797,0.199c-0.199,0.863-0.332,1.992,0.465,2.588c0.664,0,0.929-0.795,1.261-1.326
	C67.189,108.017,67.056,107.353,66.525,107.153 M72.567,106.423c-0.133-0.199-0.333-0.199-0.532-0.199
	c-1.063,0.398-1.527,1.66-1.66,2.588c1.062-0.197,1.46-1.459,2.191-2.257V106.423 M57.562,98.124
	c0.532,0.862-0.199,1.593-0.398,2.323c-0.266,0.398-0.531,0.73-0.73,0.997c-0.199,0.132-0.465,0.132-0.664,0.132
	c-0.73-0.598,0.333-1.262,0.333-1.793c0.133-0.199,0.531-0.397,0.332-0.663c-0.133-0.134-0.332-0.266-0.531-0.134
	c-0.398,0.399-1.062,0.931-1.66,1.262c-1.527,1.527-2.988,2.656-4.116,4.448c-0.73,0.93-1.66,1.858-2.125,2.854
	c-0.465,0.531-0.265,1.261-0.664,1.86c0.265,0.131,0,0.465,0,0.729c0.199,0.332,0.199,0.664,0.464,0.863
	c3.253,0.065,5.577-2.192,7.967-4.249l-0.199-0.133c-0.93,0.198-2.059,0.332-2.855,0c0-0.265-0.531-0.532-0.265-0.798
	c0.265,0,0.265-0.53,0.531-0.331c0.531,0.531,1.063,0.133,1.792,0.199l2.788-0.53c0.266-0.068,0.266-0.466,0.598-0.267
	c0.398,0.398,1.062-0.133,1.527-0.133c0.863,0,1.925-0.066,2.324,0.863c0.598,0.066,0.996,0.464,1.195,0.996
	c0.73,0,1.194-0.798,1.992-0.798c0.332-0.397,0.863-0.198,1.128-0.198c0.664,0.398,1.46,0,2.058-0.133
	c1.261-0.331,2.523-0.797,3.851-0.598c0.398,0.067,0.531,0.531,0.93,0.531c0.398-0.664,0.597-1.461,0.929-2.191
	c0.531-1.127,1.128-2.39,1.792-3.519c0.267-0.199,0.598,0.066,0.797,0.2c-0.53,2.39-1.858,4.448-2.788,6.705
	c-0.134,1.262-1.063,2.92,0.198,3.916c0.93,0.267,1.328-0.996,2.059-0.996c0.198,0.199,0.132,0.532,0.132,0.731
	c-0.665,0.73-1.46,1.329-2.39,1.129c-0.532-0.333-1.262-0.53-1.262-1.262c-0.066-0.599,0.132-1.194-0.199-1.859
	c-0.398,0.665-0.996,0.93-1.328,1.595c-0.399,0.397-0.863,0.929-1.461,0.597c-0.198-0.199-0.531-0.199-0.729-0.532
	c-0.066-0.199,0-0.398,0-0.597c0.199-0.133,0-0.332,0.199-0.532c0.133-1.062,0.93-1.857,1.262-2.787
	c-0.531,0-1.128,0.199-1.66,0.333c-0.332,0.197-0.598,0.197-0.796,0.397c0.199,1.262,0,2.257-0.532,3.319
	c-0.398,0.398-1.062,0.798-1.593,0.73c-0.598-0.267-1.395-0.664-1.528-1.394c-0.398-0.6,0.133-1.195-0.198-1.927
	c-0.333,0.066-0.532,0.201-0.863,0.066c-0.266,0.531-0.067,1.13-0.465,1.461c-0.199,0.929-0.863,1.86-1.66,2.391
	c-0.664,0.2-1.129-0.333-1.659-0.73c-0.532-1.726,0.398-3.387,1.46-4.78c-0.531-0.266-1.261,0-1.792,0
	c-0.996,0.133-0.929,1.262-1.328,1.858c-0.199,0.73-0.332,1.594-0.863,2.324c-0.398,0.598-0.398,1.328-0.929,2.059
	c-0.199,0.929-0.796,1.727-0.93,2.788c-0.398,0.199,0,0.598-0.265,0.73c0,0.93-0.73,1.659-0.531,2.457
	c0,0.198-0.332,0.331-0.531,0.198c-0.598-1.195-0.066-2.589,0.333-3.717c0.929-2.457,1.858-4.849,2.854-7.237
	c-0.066-0.199-0.198,0-0.398-0.199c-0.265,0.597-0.996,0.532-1.262,1.262c-1.328,1.127-2.788,2.058-4.315,2.987
	c-0.398,0.065-1.062,0.398-1.46,0.332c-0.597,0.464-1.46,0.398-2.058,0.066c-0.199,0-0.531-0.066-0.598-0.398
	c-0.331-0.53-0.531-1.129-0.464-1.793c0.73-3.785,3.651-6.771,6.639-9.692C54.242,98.986,55.703,97.128,57.562,98.124"/>
<path fill-rule="evenodd" clip-rule="evenodd" fill="#182D89" d="M38.308,106.555c-0.132-0.197-0.331-0.132-0.398-0.132
	c-0.73,0.597-1.062,1.461-1.261,2.389C37.578,108.415,38.375,107.484,38.308,106.555 M35.586,102.839
	c0.266,0.197,0.332,0.396,0.332,0.597c-0.066,0.331-0.332,0.53-0.598,0.53c-0.929-0.863-2.058-0.53-3.252-0.464
	c-0.266,0.265-0.996-0.066-1.328,0.531c-0.398,0.729-0.266,1.659-0.73,2.324c0,0.928-0.531,1.526-0.398,2.454
	c0,0.2-0.332,0.399,0,0.6c1.129-0.996,2.257-3.587,4.117-2.591c0.863,0.865,0.133,2.191,1.195,2.789
	c0.265,0,0.598-0.067,0.598-0.398c0.2-1.461,0.797-2.987,2.191-3.784c0.464,0,0.996,0,1.394,0.199
	c0.332,0.398,0.531,0.797,0.332,1.328c-0.332,1.327-1.66,2.457-2.789,3.319c-0.133,0.265,0,0.599,0.333,0.73
	c0.598,0.797,1.327-0.466,1.925,0.398c-0.066,0.2-0.199,0.398-0.398,0.598c-0.332,0.198-0.796,0.133-1.129,0.133
	c-0.929-0.199-1.527-0.93-2.059-1.595c-0.729-0.199-1.66-0.199-1.991-1.127c-0.2-0.465-0.067-1.13-0.399-1.661
	c-0.398,0-0.73,0.531-1.129,0.73c-0.729,0.73-1.129,1.66-1.992,2.324c-0.332,0-0.796,0.199-0.996-0.267
	c-0.664-2.123,0.265-4.314,0.93-6.372c0-0.133-0.133-0.133-0.133-0.133c-0.332-0.067-0.73,0.199-1.062,0.133
	c-0.2,0.199-0.598,0.066-0.797,0.331l-0.133,0.065c-0.199,0.333-0.265,0.731-0.397,1.13c-0.2,0.73-0.399,1.593-0.532,2.39
	c-0.266,0.93-0.199,1.992-0.066,2.987c0,0,0.066,0.398,0,0.665c0,0.266-0.398,0.066-0.598,0.066
	c-1.195-1.925-0.265-4.115,0.199-6.108c0-0.266,0.066-0.53,0.199-0.797c0-0.133-0.133-0.199-0.133-0.199
	c-0.53-0.464-1.726,0-1.659-1.062c0.331-0.199,0.531-0.532,0.929-0.199c0.532-0.2,1.063,0.397,1.396-0.333
	c0.066-0.264,0.464-1.327,0.464-1.327c0.199-0.397,0.199-0.797,0.664-1.128c0.265,0,0.597,0,0.73,0.331
	c0,0.399-0.133,0.598-0.133,0.996c0,0-0.398,0.93-0.531,1.128c-0.066,0.2,0,0.2,0,0.2c0.73-0.067,1.328-0.067,1.992-0.398
	l0.332-0.065c0.199-0.268,0.464-1.196,0.464-1.196c0.134-0.265,0.2-0.598,0.731-1.195c0-0.133,0.665-0.133,0.73,0.2l-0.065,0.596
	c0,0-0.133,0.532-0.532,1.263c0,0-0.132,0.065,0,0.065C32.93,102.571,34.458,102.307,35.586,102.839"/>
<path fill-rule="evenodd" clip-rule="evenodd" fill="#182D89" d="M135.438,105.892l-0.067-0.067c-0.861,0.2-1.592,0.533-2.189,1.13
	c-0.398,0.731-1.328,1.327-1.129,2.191c0.929-0.334,1.659-1.262,2.457-1.86C134.842,106.82,135.371,106.423,135.438,105.892
	 M154.693,106.755c-1.131,0-2.06,1.129-2.457,2.057h0.464C153.432,108.415,154.824,107.75,154.693,106.755 M129.266,98.655
	c0.397,1.128-0.467,2.323-0.932,3.253c-0.664,0.2-1.062,1.327-1.791,0.598c0-1.128,1.46-1.527,1.592-2.723
	c-0.996-0.397-1.992,0.266-2.723,0.729c-1.658,0.932-3.519,2.59-4.646,4.184c-1.062,1.661-2.391,3.386-1.791,5.577
	c0.729,0.599,1.857,0.531,2.787,0.398c2.523-0.731,4.714-2.257,6.639-4.117c0-0.132,0.199-0.132,0.133-0.331
	c-0.53-0.199-0.93,0.331-1.46,0.331c-0.73,0.399-1.526,0.399-2.191,0.73c-0.266-0.266-0.597-0.331-0.266-0.663
	c0.599-0.93,1.859-0.93,2.855-1.195c0.73-0.333,1.594-0.333,2.258-0.664c1.857-0.2,3.784-0.53,5.709-0.397
	c0.532-0.133,0.863,0.797,1.328,0.331c0.265-0.134,0.465,0.066,0.531,0.199c-0.066,1.328-1.527,2.124-1.327,3.52l0.065,0.531
	c1.195,0.065,1.991-0.73,2.854-1.261c0.93-0.731,1.727-1.661,2.591-2.259c0.199,0,0.598-0.133,0.662,0.266
	c0,0.73-0.662,1.128-0.597,1.858h0.134c0.929-0.73,1.724-1.727,2.854-2.058c0.331,0.133,0.664,0.133,0.862,0.331
	c0,0.996-0.463,1.926-0.531,2.987c0.2,0.2,0.398-0.197,0.599-0.331c0.862-0.73,1.461-1.726,2.323-2.391
	c0.398-0.198,0.664,0.134,1.129,0.333c0.065,0.93-0.333,2.191,0.598,2.788c0.398-0.065,1.063,0.331,1.262-0.199
	c0-0.331,0.265-0.531,0.265-0.73c0.864-1.461,2.392-2.655,4.184-2.655c0.73,0.266,0.73,0.996,0.73,1.727
	c-0.73,0.863-1.594,1.858-2.59,2.189c-0.199,0.334-0.863,0.199-0.73,0.599c2.19,0.531,4.248-0.399,6.175-0.93
	c0.929-0.265,1.858-0.796,2.787-1.129h0.466c0.2,0.398-0.333,0.599-0.53,0.93c-2.59,1.327-5.378,2.391-8.499,2.391
	c-0.731-0.199-1.727-0.333-2.19-1.129c-1.13,0.199-2.259-0.199-2.856-1.262c-0.198-0.397-0.132-0.93-0.198-1.326h-0.132
	c-0.931,0.929-1.661,2.389-3.121,2.255c-0.199-0.064-0.597-0.331-0.731-0.597c-0.065-0.863,0.332-1.594,0.467-2.324
	c-0.135-0.265-0.332,0-0.467,0c-1.194,0.864-2.058,2.191-3.318,3.055c-0.266,0-0.466-0.198-0.665-0.465
	c-0.266-0.598,0.399-1.129,0-1.527c-0.464,0.398-0.729,0.864-1.393,1.063c-0.599,0.596-1.396,0.929-2.391,0.795
	c-0.598-0.331-1.13-0.929-1.194-1.525c-0.931,0.73-1.794,1.726-3.122,2.058c-0.53-0.199-0.795-0.731-1.061-1.262
	c0-1.525,1.261-2.456,2.322-3.585c0-0.133,0-0.199-0.133-0.199c-0.929,0.266-2.39-0.265-2.854,0.996
	c-0.729,1.062-1.196,2.191-1.86,3.318c-0.73,1.263-1.262,2.59-2.124,3.853c0,1.128-0.796,1.858-0.464,3.054
	c-0.332,0.266-0.532,0.531-0.863,0.332c-0.333-0.2-0.598-0.531-0.398-1.063c0.729-2.258,1.926-4.449,2.987-6.706
	c0-0.065-0.134-0.265-0.199-0.265c-0.399,0.397-1.063,0.596-1.526,0.994c-0.266,0-0.332,0.2-0.532,0.333
	c-0.198,0.398-0.664,0.599-1.129,0.599c-0.729,0.331-1.459,0.862-2.323,0.862c-0.73,0.398-1.66,0-2.391,0
	c-0.663-0.332-1.193-0.93-1.394-1.594c0.065-4.515,3.319-8.232,7.038-10.623c1.194-0.729,2.787-1.394,4.249-1.062L129.266,98.655"/>
<path fill-rule="evenodd" clip-rule="evenodd" fill="#182D89" d="M111.338,106.09h-0.332c-0.796,0.665-1.526,1.596-1.526,2.591
	c0.331-0.2,0.598-0.465,0.929-0.599C110.807,107.484,111.472,106.954,111.338,106.09 M102.641,99.518
	c-0.066,0.797-0.797,1.461-0.995,2.258c-0.134,0.199-0.134,0.398-0.267,0.531c0.665,0,1.592,0.066,2.126-0.398
	c0.397-0.93,0.928-1.859,1.658-2.59c0.266,0,0.399,0.266,0.599,0.266c-0.199,0.929-0.93,1.594-1.329,2.391
	c1.13,0,1.927-0.066,2.656,0.864c0,0.197-0.066,0.464-0.267,0.597c-0.33,0-0.463-0.333-0.663-0.333
	c-0.797,0-1.658-0.066-2.457,0.133c-0.397,0.997-0.731,2.059-1.128,3.122c-0.266,0.796-0.465,1.393-0.266,2.257
	c0.266,0.197,0.662-0.199,0.73-0.398c0.466-0.731,1.063-1.396,1.658-1.992c0.466-0.199,0.731-0.73,1.132-0.531
	c0.33,0.199,0.993,0.199,0.86,0.73l0.133,0.132c0.4,0.93-0.33,2.656,1.196,2.591c0.398-0.864,0.53-1.86,1.128-2.591
	c0.333-0.53,0.73-1.128,1.262-1.393c0.398-0.267,1.063-0.267,1.526-0.068c0.467,0.399,0.665,0.931,0.532,1.461
	c-0.265,0.599-0.532,1.329-1.129,1.727c-0.199,0.399-0.396,0.665-0.798,0.864c-0.463,0.396-0.929,0.464-1.261,0.995
	c0.067,0.397,0.332,0.664,0.73,0.863c0.53,0.265,1.328-0.665,1.462,0.265c-0.134,0.466-0.2,0.532-0.53,0.731
	c-1.131,0.331-1.861-0.731-2.591-1.195c0-0.864-0.73-0.466-1.128-0.864c-0.664-0.199-1.13-0.729-1.394-1.326
	c0.132-0.532,0-1.063-0.267-1.461c-0.531,0-1.062,0.532-1.262,0.929c-0.531,0.729-1.129,1.527-1.86,2.059
	c-0.396,0.133-0.73,0-1.062-0.265c-0.399-2.392,0.531-4.449,1.262-6.573c-0.597,0.133-1.528,0-2.059,0.53
	c-0.199,0.664-0.199,1.261-0.598,1.793c0,0.598-0.663,0.929-0.464,1.527c-0.199,0.397-0.465,0.863-0.399,1.262
	c-0.198,0.266-0.065,0.73-0.266,0.996c0,0.33,0,0.729-0.265,0.928c-0.266,0.134-0.398,0-0.466-0.198
	c-0.131-2.257,0.798-4.316,1.396-6.308c-0.199-0.198-0.598-0.066-0.93,0c-0.466,0.133-0.93-0.331-1.196-0.73
	c0-0.198,0-0.397,0.267-0.531c0.73,0.333,1.593,0,2.323,0c0.798-1.127,0.995-2.323,1.726-3.386
	C102.044,99.318,102.44,99.12,102.641,99.518"/>
<path fill-rule="evenodd" clip-rule="evenodd" fill="#182D89" d="M86.108,108.017c-0.597-0.731-1.659-0.863-2.589-0.997
	c-0.397,0.73-0.929,1.461-0.73,2.324c0.133,0.266,0.333,0.597,0.597,0.73c0.863,0.066,1.794,0,2.324-0.73
	C86.108,109.012,86.108,108.48,86.108,108.017 M92.814,101.243c0,0.665-0.599,1.063-0.73,1.661c-0.797,0.929-0.729,2.39-1.327,3.453
	c0,0.463-0.397,0.662-0.333,1.193c-0.397,0.199-0.199,0.73-0.465,1.063c0.067,0.332-0.331,0.597,0.067,0.797
	c0.333,0,0.397-0.399,0.53-0.6c0.532-0.331,0.798-0.928,1.328-0.928c0.398,0.531-0.332,0.797-0.53,1.262
	c-1.13,0.995-1.727,2.457-2.457,3.784c-0.862,0.862-0.598,1.991-1.261,2.921c0,0.398-0.6,0.73-0.532,1.261
	c-0.266,0.398-0.266,0.997-0.663,1.328c-0.266,0.199-0.53,0-0.663-0.2c-0.2-0.729,0.197-1.46,0.53-2.058
	c1.526-2.522,2.191-5.377,2.987-8.165c0.53-1.594,1.261-3.054,1.594-4.714c-0.266-0.2-0.333,0.199-0.53,0
	c-0.135,0.464-0.664,0.332-0.865,0.53c-1.128,0.863-2.588,0.863-3.716,1.793c0,0.198-0.2,0.398-0.068,0.598
	c0.731,0.199,1.196,0.796,1.327,1.526c0.2,0.931-0.198,1.991-0.861,2.723c-0.664,0.73-1.859,0.597-2.79,0.531
	c-0.729-0.199-1.658-0.73-1.724-1.593c0-1.195,0.331-2.591,1.326-3.188c1.063-0.93,2.191-1.527,3.453-2.19
	c1.858-0.73,3.585-1.328,5.243-2.589c0.134-0.267,0.399-0.731,0.799-0.399L92.814,101.243"/>
<polygon fill-rule="evenodd" clip-rule="evenodd" fill="#182D89" points="28.017,42.088 28.88,43.75 28.549,44.015 27.818,42.554 
	27.088,42.952 27.751,44.213 27.486,44.346 26.822,43.151 25.693,43.682 25.428,43.417 28.017,42.088 "/>
<path fill-rule="evenodd" clip-rule="evenodd" fill="#182D89" d="M25.414,25.763c-0.051,0.241-0.162,0.462-0.334,0.666
	c-0.172,0.203-0.387,0.344-0.644,0.423c-0.256,0.078-0.51,0.092-0.759,0.039c-0.247-0.053-0.471-0.166-0.672-0.341
	c-0.201-0.175-0.341-0.389-0.418-0.643c-0.078-0.254-0.09-0.505-0.038-0.753c0.052-0.249,0.166-0.473,0.341-0.672
	c0.175-0.201,0.389-0.341,0.644-0.419c0.255-0.078,0.505-0.091,0.752-0.039c0.25,0.054,0.476,0.169,0.677,0.346
	c0.204,0.178,0.342,0.394,0.417,0.649C25.454,25.274,25.465,25.523,25.414,25.763 M25.177,25.713
	c0.043-0.202,0.032-0.408-0.03-0.621c-0.063-0.212-0.178-0.394-0.347-0.541c-0.169-0.149-0.358-0.245-0.565-0.29
	c-0.207-0.043-0.416-0.032-0.627,0.033c-0.212,0.065-0.391,0.181-0.538,0.349c-0.146,0.168-0.241,0.354-0.284,0.561
	c-0.044,0.207-0.033,0.416,0.032,0.627c0.065,0.213,0.182,0.392,0.349,0.537c0.167,0.145,0.354,0.239,0.56,0.284
	c0.208,0.043,0.419,0.033,0.634-0.032c0.213-0.067,0.393-0.185,0.536-0.354C25.04,26.097,25.134,25.913,25.177,25.713 M23.65,25.869
	l-0.118,0.219c-0.15-0.072-0.259-0.178-0.327-0.321c-0.068-0.145-0.083-0.305-0.046-0.48c0.047-0.222,0.157-0.388,0.331-0.497
	c0.174-0.11,0.389-0.137,0.645-0.082c0.167,0.036,0.306,0.097,0.416,0.188c0.11,0.09,0.184,0.2,0.222,0.33
	c0.037,0.13,0.04,0.272,0.008,0.422c-0.036,0.168-0.106,0.3-0.21,0.395c-0.104,0.094-0.229,0.147-0.375,0.157l-0.008-0.237
	c0.103-0.019,0.186-0.06,0.252-0.123s0.109-0.145,0.13-0.245c0.031-0.146,0.005-0.276-0.079-0.394
	c-0.083-0.115-0.222-0.195-0.416-0.236c-0.194-0.041-0.35-0.027-0.468,0.041c-0.118,0.068-0.192,0.173-0.223,0.315
	c-0.024,0.114-0.013,0.221,0.035,0.321C23.467,25.742,23.544,25.817,23.65,25.869"/>
<path fill-rule="evenodd" clip-rule="evenodd" fill="#182D89" d="M31.969,47.754c0.164,0.181,0.277,0.4,0.339,0.657
	c0.062,0.256,0.05,0.511-0.037,0.763c-0.085,0.252-0.224,0.463-0.412,0.633c-0.186,0.167-0.407,0.28-0.665,0.341
	c-0.258,0.059-0.511,0.047-0.76-0.04c-0.25-0.086-0.458-0.222-0.627-0.409c-0.168-0.188-0.283-0.408-0.341-0.665
	c-0.06-0.258-0.047-0.511,0.04-0.761c0.085-0.25,0.222-0.458,0.408-0.626c0.188-0.17,0.412-0.285,0.672-0.343
	c0.26-0.06,0.514-0.044,0.764,0.044C31.6,47.438,31.806,47.574,31.969,47.754 M31.791,47.916c-0.137-0.152-0.31-0.265-0.516-0.338
	c-0.207-0.074-0.42-0.086-0.637-0.037c-0.218,0.049-0.405,0.144-0.561,0.285s-0.269,0.315-0.341,0.522
	c-0.07,0.208-0.082,0.419-0.032,0.635c0.049,0.215,0.144,0.4,0.283,0.556c0.141,0.156,0.315,0.269,0.524,0.34
	c0.209,0.072,0.42,0.083,0.634,0.034c0.214-0.049,0.399-0.144,0.554-0.285c0.157-0.14,0.271-0.315,0.343-0.527
	c0.071-0.21,0.082-0.423,0.03-0.637C32.02,48.249,31.926,48.066,31.791,47.916 M29.866,48.79l1.162-1.046l0.36,0.4
	c0.123,0.137,0.202,0.244,0.235,0.325c0.034,0.08,0.04,0.162,0.019,0.246c-0.021,0.085-0.062,0.155-0.122,0.208
	c-0.085,0.077-0.187,0.113-0.304,0.109c-0.118-0.004-0.225-0.053-0.323-0.146c0.02,0.057,0.03,0.108,0.027,0.154
	c-0.004,0.089-0.029,0.215-0.076,0.38l-0.1,0.345l-0.207-0.228l0.09-0.269c0.071-0.211,0.103-0.356,0.095-0.439
	c-0.004-0.059-0.037-0.121-0.096-0.187l-0.099-0.111l-0.494,0.445L29.866,48.79 M30.688,48.391l0.204,0.227
	c0.098,0.109,0.182,0.167,0.249,0.179c0.068,0.01,0.129-0.008,0.183-0.056c0.035-0.031,0.056-0.069,0.066-0.112
	c0.01-0.043,0.006-0.088-0.011-0.135s-0.066-0.114-0.15-0.206l-0.192-0.214L30.688,48.391"/>
<path fill-rule="evenodd" clip-rule="evenodd" fill="#182D89" d="M22.096,29.855l-0.012-0.354l2.251-0.079
	c-0.084-0.082-0.169-0.19-0.255-0.325c-0.086-0.136-0.151-0.257-0.195-0.366l0.341-0.012c0.1,0.195,0.218,0.363,0.356,0.507
	c0.137,0.143,0.27,0.243,0.396,0.3l0.007,0.228L22.096,29.855 M22.832,30.73l0.06,0.336c-0.156,0.042-0.267,0.107-0.332,0.195
	c-0.064,0.087-0.091,0.193-0.081,0.32c0.01,0.108,0.043,0.201,0.1,0.277c0.057,0.078,0.128,0.139,0.216,0.184
	s0.204,0.079,0.347,0.102c0.145,0.022,0.289,0.028,0.435,0.015c0.016,0,0.04-0.004,0.071-0.008c-0.118-0.061-0.218-0.15-0.298-0.265
	c-0.081-0.116-0.126-0.245-0.139-0.386c-0.021-0.238,0.048-0.447,0.206-0.625c0.159-0.18,0.377-0.282,0.659-0.307
	c0.291-0.025,0.533,0.04,0.725,0.196c0.192,0.156,0.3,0.363,0.322,0.622c0.017,0.187-0.019,0.361-0.106,0.523
	c-0.086,0.164-0.22,0.294-0.398,0.391s-0.444,0.16-0.796,0.191c-0.367,0.031-0.662,0.018-0.886-0.043s-0.399-0.165-0.527-0.312
	c-0.126-0.147-0.2-0.327-0.218-0.538c-0.021-0.224,0.026-0.412,0.138-0.565C22.44,30.88,22.608,30.779,22.832,30.73 M24.224,32.062
	c0.202-0.018,0.358-0.084,0.467-0.203c0.109-0.119,0.157-0.252,0.144-0.404c-0.013-0.157-0.089-0.287-0.227-0.393
	c-0.139-0.104-0.31-0.148-0.513-0.13c-0.183,0.016-0.326,0.084-0.43,0.204c-0.104,0.121-0.149,0.261-0.135,0.422
	c0.014,0.164,0.083,0.292,0.206,0.388C23.858,32.041,24.021,32.079,24.224,32.062 M24.875,32.859l0.336-0.053l0.292,1.84
	l-0.272,0.042c-0.221-0.15-0.505-0.29-0.853-0.416c-0.348-0.127-0.698-0.213-1.05-0.256c-0.25-0.033-0.518-0.037-0.803-0.011
	l-0.057-0.358c0.224-0.031,0.501-0.03,0.831,0.004c0.33,0.033,0.655,0.106,0.974,0.215c0.319,0.112,0.593,0.239,0.823,0.385
	L24.875,32.859 M25.275,35.417l0.33-0.083l0.451,1.808l-0.267,0.066c-0.233-0.129-0.528-0.243-0.886-0.34
	c-0.357-0.097-0.714-0.15-1.068-0.164c-0.252-0.01-0.519,0.009-0.802,0.061l-0.087-0.353c0.221-0.051,0.497-0.074,0.829-0.069
	c0.332,0.005,0.662,0.048,0.988,0.13c0.327,0.083,0.613,0.187,0.853,0.312L25.275,35.417 M23.856,39.686l2.704-0.984l0.665,1.824
	l-0.32,0.117l-0.533-1.467l-0.838,0.304l0.462,1.27l-0.319,0.117l-0.461-1.27l-1.229,0.447L23.856,39.686 M24.824,42.212
	l2.629-1.171l0.154,0.348l-2.629,1.171L24.824,42.212 M25.426,43.525l2.517-1.396l0.942,1.699l-0.297,0.165l-0.757-1.366
	l-0.779,0.433l0.655,1.181l-0.297,0.165l-0.655-1.181l-1.144,0.634L25.426,43.525 M26.371,45.283l2.992-0.745l0.235,0.335
	l-1.682,2.616l-0.249-0.354l0.522-0.776l-0.691-0.986l-0.896,0.242L26.371,45.283 M27.815,45.285l0.56,0.8l0.48-0.704
	c0.147-0.213,0.271-0.383,0.373-0.509c-0.173,0.076-0.353,0.138-0.54,0.188L27.815,45.285"/>
<radialGradient id="XMLID_1_" cx="-211.1201" cy="496.5615" r="40.7746" gradientTransform="matrix(1 0 0 1 314.7285 -483.2813)" gradientUnits="userSpaceOnUse">
	<stop  offset="0.1" style="stop-color:#94D6D4"/>
	<stop  offset="0.9" style="stop-color:#342B90"/>
</radialGradient>
<path fill-rule="evenodd" clip-rule="evenodd" fill="url(#XMLID_1_)" d="M96.812,1.779c14.396,0,26.139,11.742,26.139,26.139
	c0,14.396-11.742,26.139-26.139,26.139S70.674,42.314,70.674,27.918C70.674,13.521,82.415,1.779,96.812,1.779L96.812,1.779z"/>
<radialGradient id="XMLID_2_" cx="-204.2671" cy="458.1514" r="29.759" gradientTransform="matrix(1 0 0 1 303.0498 -440.5762)" gradientUnits="userSpaceOnUse">
	<stop  offset="0.15" style="stop-color:#FFFF00"/>
	<stop  offset="0.85" style="stop-color:#FF0000"/>
</radialGradient>
<path fill-rule="evenodd" clip-rule="evenodd" fill="url(#XMLID_2_)" d="M86.042,41.159c0.332,0.067,0.399,0.067,0.464,0.132
	c0.135,0.133,0.333,0,0.135-0.265c-0.135-0.333-0.267-1.129-0.465-1.395c-0.134-0.266-0.265-0.665-0.532-0.465
	c-0.398,0.134-0.531,0.067-0.864,0.067c-0.264-0.067-0.53,0-0.33,0.132c0.066,0.266,0.133,0.333,0.33,0.333
	c0.267,0.066,0.333,0.066,0.466,0.266c0.134,0.132,0.333,0.333,0.333,0.531c0,0.398-0.266,0.597,0.065,0.597
	C85.775,41.093,85.843,41.027,86.042,41.159 M85.911,42.421c0.064,0.265,0.131,1.261,0.131,1.593c0,0.133,0.134,0.464-0.066,0.664
	c-0.133,0.265-0.266,0.53-0.064,0.664c0.131,0.132,0.265,0.067,0.463-0.066c0.132-0.2,0.199-0.398,0.332-0.465
	c0.266-0.133,0.266-0.465,0.2-0.664c0-0.265-0.067-0.797,0-0.996c0.065-0.266,0.065-0.599-0.067-0.664
	c-0.266-0.067-0.333-0.266-0.397-0.399c-0.067-0.266-0.2-0.331-0.399-0.266C85.843,41.823,85.843,42.022,85.911,42.421
	 M102.971,46.006c-0.196,0.066-0.53,0.199-0.53,0.464c-0.065,0.133-0.065,0.2,0.134,0.332c0.265,0.199,0.465,0.266,0.73,0.333
	c0.332,0.199,0.53,0.199,0.73,0.199c0.065,0,0.132-0.066,0.132-0.199c0-0.134-0.132-0.532-0.332-0.798
	c-0.133-0.265-0.266-0.398-0.398-0.398C103.305,45.874,103.172,45.874,102.971,46.006 M102.906,36.512
	c1.991-1.46,3.386-2.921,4.315-3.917l5.112,1.66c0,0.067-0.067,0.133-0.067,0.133c0,0.199,0.067,0.464-0.197,0.929
	c-0.267,0.464-0.598,0.863-0.798,0.929c-0.198,0.067-0.53,0.134-0.864,0.465c-0.264,0.199-0.796,0.531-1.061,1.129
	c-0.2,0.2-0.466,0.997-0.864,1.395c-0.397,0.333-0.729,0.664-1.128,0.797c-0.332,0.199-0.532,0.266-1.063,0.266
	c-0.398,0-0.531,0.199-0.73,0.397c-0.065,0.2-0.133,0.133-0.266,0.333c-0.331,0.199-0.465,0.265-0.663,0.53
	c-0.267,0.067-0.466,0.266-0.598,0.531c-0.2,0.333-0.398,0.73-0.466,1.063c-0.133,0.265-0.397,0.597-0.53,0.863
	c-0.133,0.133-0.531,0.332-0.664,0.464c-0.066,0.134-0.132,0.2-0.199,0.4c-0.067,0.266-0.067,0.464-0.397,0.531
	c-0.2,0.065-0.267,0.199-0.4,0.331c-0.065,0.134-0.132,0.266-0.266,0.2c-0.199-0.066-0.33-0.2-0.398-0.598
	c-0.065-0.398-0.265-1.194-0.265-1.593c0-0.267,0-0.597,0.133-0.996c0.2-0.398,0.331-0.597,0.331-0.995
	c0.066-0.333,0.066-0.466,0-0.73c-0.131-0.2-0.199-0.333-0.131-0.93c0-0.199,0.33-0.73,0.464-0.93c0,0,0,0,0-0.066
	c0-0.265,0.266-0.53,0.332-0.73c0.132-0.399,0.331-0.731,0.397-0.93c0.133-0.2,0.133-0.266,0.2-0.398
	C102.375,36.91,102.574,36.71,102.906,36.512 M106.689,24.627c-0.065-0.198-0.132-0.531-0.198-0.73
	c0.133,0.066,0.331,0.066,0.531,0.199c0.199,0.333,0.397,0.398,0.73,0.531c0.133,0.132,0.332,0.332,0.53,0.398
	c0.067,0.199,0.333,0.332,0.532,0.73c0.132,0.465,0.132,0.797,0.199,1.063c0.065,0.132,0.332,0.531,0.465,0.795
	c0.132,0.133,0.331,0.532,0.73,0.598c0.266,0.067,0.531,0.199,0.729,0.199c0.067,0.133,0.333,0.199,0.399,0.199
	c0.134,0,0.266,0.067,0.465,0.134c0.199,0.066,1.062,0.332,1.195,0.531c0.265,0.133,0.73,0.331,0.73,0.796
	c0.066,0.332,0,0.664-0.199,0.996c-0.066,0.133-0.331,0.664-0.597,0.93l-5.047-1.594C107.818,29.01,107.487,27.018,106.689,24.627
	 M103.702,23.1c1.129,2.39,1.727,4.847,1.927,7.768c-1.063,1.394-2.324,2.59-3.521,3.453c-0.133-0.398-0.33-0.598-0.464-0.797
	c-0.267-0.332-0.465-0.464-0.665-0.531c-0.266-0.133-0.463-0.398-0.598-0.731c-0.33-0.264-0.595-0.929-0.73-1.194
	c-0.131-0.398-0.33-0.664-0.33-1.195c-0.067-0.464-0.067-0.929,0-1.46c0.132-0.465,0.397-1.195,0.466-1.261
	c0.131-0.2,0.53-0.664,0.595-0.797c0.067-0.2,0.2-0.598,0.067-0.796c-0.067-0.2-0.332-0.598-0.598-0.664
	c-0.2-0.134-0.398-0.134-0.664-0.201c-0.132-0.066-0.663-0.264-0.862-0.53c-0.134-0.067-0.332-0.266-0.465-0.399
	c-0.266-0.266-0.53-0.531-0.796-0.531c-0.267-0.065-0.466-0.133-0.798-0.199c-0.398-0.2-0.663-0.266-1.061-0.532
	c-0.2-0.265-0.334-0.331-0.599-0.331c-0.267,0-0.397-0.266-0.665-0.532c-0.133-0.131-0.197-0.131-0.531-0.531
	c-0.132-0.332-0.132-0.332-0.265-0.664c-0.067-0.199-0.199-0.399-0.397-0.598c1.128-0.133,2.257-0.266,3.585-0.266
	c-0.132,0.133-0.332,0.399-0.665,0.665c-0.133,0.132-0.266,0.398-0.198,0.597c0,0.266,0.065,0.266,0.133,0.465
	c0.133,0.133,0.265,0.201,0.599,0.201c0.132-0.067,0.463-0.134,0.596-0.134c0.199,0,0.398-0.066,0.465,0.134
	c0.067,0.331,0.132,0.596,0.332,0.663c0.398,0.066,0.53,0.066,0.597,0.066c0.067,0.066,0.266,0.199,0.333,0.332
	c0.199,0.265,0.396,0.664,0.597,0.863c0.133,0.133,0.332,0.331,0.53,0.331c0.2,0.067,0.267,0.067,0.333,0.067
	c0.133,0,0.397,0,0.532,0.066c0.065,0.066,0.197,0.133,0.396,0.199c0.066,0.067,0.199,0.266,0.267-0.066
	c0.133-0.133,0.198-0.532,0.465-0.731c0.265-0.132,0.331-0.265,0.664-0.265c0.266-0.066,0.73-0.132,0.996,0
	C103.437,22.968,103.637,23.034,103.702,23.1 M96.665,17.258c-1.859,0-3.451,0.199-4.714,0.532l-0.066-0.067
	c-0.066-0.332-0.2-0.465-0.465-0.73c-0.266-0.398-0.797-0.929-1.128-1.394c-0.199-0.266-0.334-0.797-0.599-1.527
	c-0.265-0.73-0.597-1.793-0.73-2.124c-0.133-0.399-0.53-0.666-0.795-0.797c-0.399-0.134-0.531-0.266-0.666-0.332
	c0.598-1.063,1.396-2.324,2.524-3.387c0.066,0.067,0.132,0.067,0.132,0.067c0.334,0.066,1.129,0.664,1.395,0.531
	c0.332-0.133,0.862-0.464,1.128-0.598c0.398-0.132,0.863-0.265,1.262-0.465c0.398-0.066,0.665-0.132,0.863,0
	c0.2,0.266,0.73,0.333,0.931,0.2c0.331-0.266,0.862-0.399,1.261-0.332c0.464,0,0.464,0,0.598,0C97.661,6.9,97.927,6.9,98.061,6.9
	C98.191,6.967,98.457,7.3,98.724,7.3c0.197,0,0.53,0.065,0.397,0.265c-0.065,0.331-0.331,0.464-0.597,0.53
	c-0.199,0.067-0.531,0.067-0.863,0.266c-0.2,0.133-0.597,0.399-0.664,0.666c-0.199,0.198-0.199,0.464,0,0.663
	c0.266,0.133,0.598,0.199,0.93,0.266c0.265,0.067,0.598,0.067,0.863,0.266c0.266,0.199,0.531-0.133,0.663,0.266
	c0.067,0.398,0.067,0.53,0.198,0.73c0.067,0.199,0.2,0.398,0.4,0.332c0.33-0.066,0.465-0.267,0.597-0.598
	c0.134-0.398,0.331-0.73,0.464-0.996c0.067-0.199,0.134-0.333,0.067-0.664c0-0.2-0.067-0.265-0.267-0.465
	c-0.199-0.133-0.265-0.332-0.331-0.598c-0.065-0.265,0.2-0.333,0.397-0.333c0.133-0.132,0.398,0,0.799,0.067
	c0.397,0.132,0.53,0.199,0.662,0.465c0.134,0.265,0.334,0.332,0.398,0.663c0.067,0.266,0.2,0.598,0.266,0.665
	c0.2,0.066,0.332,0.132,0.598,0.066c0.133-0.066,0,0,0.133,0c0.266-0.066,0.332-0.066,0.399,0.066
	c0.198,0.134,0.331,0.199,0.398,0.73c0,0.532-0.067,0.663-0.2,0.864c-0.198,0.132-0.332,0.199-0.466,0.199
	c-0.197,0-0.33,0-0.397,0.066c-0.133,0-0.199,0.2-0.133,0.398c0,0.132,0.333,0.93,0.333,1.195c0,0.266,0.065,0.664-0.333,0.664
	c-0.397,0-0.996,0.067-1.261,0.133c-0.466,0.133-0.93,0.664-1.196,0.997c-0.197,0.265-0.197,0.331-0.331,0.464
	c-0.066,0.265-0.199,0.464-0.331,0.531c-0.266,0.066-0.466,0.265-0.599,0.332c-0.067,0.133-0.198,0.199-0.465,0.133
	c-0.198-0.066-0.53-0.266-0.929-0.133c-0.066,0-0.398,0.598-0.73,0.863C97.33,17.258,96.997,17.258,96.665,17.258 M88.035,6.768
	c-1.063,0.863-1.859,1.926-2.457,2.988h-0.199c-0.267,0-0.531-0.067-0.997,0.066c-0.266,0.066-0.598,0.133-0.929,0.2
	c-0.2,0.065-0.332,0.199-0.531,0.199c-0.133-0.133-0.066-0.333-0.066-0.399c0.066-0.133,0.333-0.332,0-0.465
	c-0.199-0.065-0.265-0.199-0.265-0.398c0.065-0.199,0.198-0.531,0.53-0.73c0.132-0.199,0.398-0.664,0.598-0.797
	c0.266-0.132,0.466-0.465,0.663-0.465c0.134,0.2,0.466-0.132,0.73-0.199c0.267-0.066,0.73-0.198,1.129-0.198
	c0.399,0,0.73,0,1.195,0.065C87.569,6.635,87.702,6.702,88.035,6.768"/>
<path fill-rule="evenodd" clip-rule="evenodd" fill="#FFFFFF" d="M96.745,0c15.536,0,27.951,12.482,27.951,27.951
	c0,15.403-12.415,27.885-27.951,27.885c-15.402,0-27.817-12.482-27.817-27.885C68.928,12.482,81.343,0,96.745,0 M103.12,36.515
	c-2.125,1.461-3.983,2.324-5.246,2.855v7.104c1.726,0.929,4.382,2.058,7.568,1.925c1.594-0.598,3.121-1.262,4.581-2.258
	s2.523-2.257,3.586-3.652c1.194-3.054,0.797-5.842,0.466-7.768l-6.707-2.125C106.504,33.594,105.044,35.055,103.12,36.515
	 M107.346,25.916c0.406,1.799,0.688,3.43,0.753,4.492l6.639,2.19c1.46-1.328,3.318-3.519,4.249-6.573c0-1.858-0.2-3.318-0.796-5.112
	c-0.598-1.725-1.395-2.986-2.324-4.447c-0.398-0.333-2.164-2.194-7.313-2.806c-1.368,1.864-2.734,3.726-4.104,5.588
	C105.626,21.215,106.732,23.775,107.346,25.916 M90.236,36.25c-1.309-0.979-3.022-2.456-4.03-3.638v-0.004l-6.655,2.115
	c-0.399,1.926-0.73,4.713,0.398,7.768c1.13,1.395,2.123,2.656,3.65,3.652c1.46,1.128,2.789,1.66,4.515,2.258
	c3.253,0.132,5.843-0.996,7.636-1.925v-7.104C94.044,38.689,91.521,37.527,90.236,36.25 M91.435,34.392
	c1.526,1.194,3.253,2.123,5.311,3.054c3.719-1.527,6.439-3.519,9.095-6.573c-0.131-1.859-0.53-3.452-0.855-5.044
	c-0.641-1.765-1.476-3.792-2.509-5.523c-3.074-1.001-7.703-0.874-11.312-0.056c-1.355,2.779-3.14,5.723-3.395,10.635
	C89.096,32.369,90.034,33.225,91.435,34.392 M85.508,30.388L85.508,30.388c0.508-4.208,1.594-7.772,3.67-11.118l0.01-0.012
	l-4.128-5.582c-1.991,0.2-4.711,0.797-7.301,2.79c-0.997,1.46-1.858,2.788-2.391,4.447c-0.531,1.794-0.73,3.254-0.73,5.112
	c0.863,3.055,2.788,5.246,4.249,6.573L85.508,30.388 M90.986,18.014l0.012-0.008c4.518-1.052,8.6-0.752,11.676,0.077
	c-0.183-0.08,4.031-5.646,4.105-5.795c-0.72-1.38-1.811-3.177-2.531-3.922v0c-0.731-0.796-1.462-1.527-2.39-2.059
	c-1.727-0.596-3.32-0.862-5.113-0.862c-1.66,0-3.254,0.266-4.979,0.862c-2.723,1.727-4.207,4.299-4.937,6.025L90.986,18.014
	 M89.773,5.311c-0.397-0.398-1.594-1.062-3.385-1.327c-3.453,1.526-6.639,3.917-9.228,6.706c-0.266,1.792,0.133,3.054,0.265,3.519
	c2.191-1.395,4.779-2.523,7.368-2.723C85.923,9.029,87.717,6.838,89.773,5.311 M75.9,15.602c-0.134-0.464-0.333-1.527-0.2-3.054
	c-1.593,2.191-2.855,4.647-3.652,7.303c-0.863,2.655-1.328,5.444-1.328,8.099c0.731-1.394,1.527-2.125,1.925-2.323
	c0.133-1.792,0.266-3.519,0.797-5.246C74.041,18.59,74.97,17.129,75.9,15.602 M73.111,27.686c-0.465,0.265-1.527,1.061-2.258,2.722
	c0.399,3.785,1.594,7.503,3.585,10.821c1.461,0.863,2.855,0.93,3.386,0.863c-0.73-2.522-0.93-5.245-0.465-7.834
	C75.368,32.533,73.975,30.143,73.111,27.686 M78.688,44.019c-0.531,0-1.593-0.133-2.987-0.73c1.593,2.124,3.519,4.049,5.708,5.775
	c2.323,1.659,4.779,2.855,7.304,3.651c-0.931-1.128-1.461-2.058-1.529-2.588c-1.725-0.598-3.317-1.329-4.778-2.392
	C81.012,46.607,79.75,45.346,78.688,44.019 M89.243,50.325c0.066,0.531,0.53,1.727,1.858,3.054c3.651,0.798,7.701,0.798,11.42,0
	c1.261-1.327,1.792-2.522,1.859-3.054c-2.591-0.066-5.313-0.598-7.636-1.992C94.555,49.727,91.832,50.259,89.243,50.325
	 M106.439,50.127c-0.067,0.53-0.6,1.46-1.528,2.588c2.524-0.796,4.98-1.992,7.17-3.651c2.259-1.726,4.252-3.651,5.843-5.775
	c-1.395,0.597-2.456,0.73-2.987,0.73c-1.061,1.328-2.323,2.588-3.783,3.717C109.757,48.798,108.165,49.529,106.439,50.127
	 M115.733,42.092c0.6,0.067,1.859,0,3.452-0.863c1.993-3.318,3.188-7.037,3.584-10.821c-0.729-1.661-1.857-2.457-2.257-2.722
	c-0.862,2.457-2.389,4.847-4.315,6.572C116.73,36.848,116.529,39.57,115.733,42.092 M120.912,25.627
	c0.465,0.199,1.263,0.93,1.993,2.323c0-2.655-0.467-5.444-1.328-8.099c-0.93-2.656-2.125-5.112-3.653-7.303
	c0.132,1.526-0.064,2.589-0.331,3.054c1.062,1.527,1.859,2.988,2.39,4.78C120.581,22.108,120.847,23.835,120.912,25.627
	 M105.438,6.702c0.131-0.003,2.727,2.958,3.377,4.792c3.094,0.154,5.595,1.727,7.382,2.714c0.136-0.465,0.466-1.727,0.267-3.519
	c-2.656-2.789-5.776-5.179-9.428-6.706c-1.727,0.266-2.788,0.929-3.254,1.327C104.379,5.708,104.975,6.237,105.438,6.702
	 M101.991,4.315c0.464-0.332,1.394-0.863,2.92-1.195c-2.522-0.797-5.312-1.262-8.166-1.262c-2.788,0-5.511,0.464-8.032,1.262
	c1.526,0.332,2.456,0.864,2.787,1.195c1.794-0.465,3.453-0.796,5.245-0.796C98.604,3.519,100.329,3.851,101.991,4.315"/>
<radialGradient id="XMLID_3_" cx="-207.6304" cy="496.5615" r="40.775" gradientTransform="matrix(1 0 0 1 269.9399 -483.2813)" gradientUnits="userSpaceOnUse">
	<stop  offset="0.1" style="stop-color:#94D6D4"/>
	<stop  offset="0.9" style="stop-color:#342B90"/>
</radialGradient>
<path fill-rule="evenodd" clip-rule="evenodd" fill="url(#XMLID_3_)" d="M55.512,1.779c14.397,0,26.14,11.742,26.14,26.139
	c0,14.396-11.743,26.139-26.14,26.139c-14.396,0-26.138-11.742-26.138-26.139C29.374,13.521,41.116,1.779,55.512,1.779L55.512,1.779
	z"/>
<radialGradient id="XMLID_4_" cx="-223.6294" cy="475.1064" r="29.4674" gradientTransform="matrix(1 0 0 1 280.874 -458.5029)" gradientUnits="userSpaceOnUse">
	<stop  offset="0.15" style="stop-color:#FFFF00"/>
	<stop  offset="0.85" style="stop-color:#FF0000"/>
</radialGradient>
<path fill-rule="evenodd" clip-rule="evenodd" fill="url(#XMLID_4_)" d="M65.595,24.627c-0.796-2.39-1.726-4.182-2.457-5.378
	l4.117-5.576c1.593,0.199,3.917,0.531,6.175,1.925c-0.2,0.464-0.333,0.73-0.2,1.063c0.132,0.331-0.133,0.597-0.133,0.664
	c0,0.132-0.066,0.398-0.066,0.465c0,0.132-0.067,0.531-0.067,0.73c0,0.133,0,0.531-0.133,0.664
	c-0.265,0.066-0.333,0.333-0.664,0.066c-0.333-0.199-0.465-0.397-0.797-0.464c-0.199-0.199-0.265-0.199-0.398,0
	c-0.066,0.133-0.331,0.333-0.066,0.664c0.066,0.2,0.265,0.399,0.332,0.598c0.066,0.199,0.066,0.266,0,0.398
	c-0.067,0.199-0.199,0.332-0.133,0.664c0.066,0.332,0.066,0.863,0.133,1.196c0,0.265-0.067,0.465-0.133,0.597
	c-0.066,0.066-0.066,0.266-0.066,0.332c0,0-0.067,0.266-0.398,0.465c-0.266,0.133-0.797,0.332-0.93,0.398
	c-0.199,0.266-0.53,0.399-0.398,1.063c0.066,0.398-0.132,1.128-0.066,1.195c0.066,0.133,0.132,0.532-0.066,0.664
	c-0.333,0.066,0,0-0.266,0.066c-0.134,0-0.332,0.133-0.2,0.532c0.133,0.199,0.2,0.664,0.2,0.996c0,0.199-0.332,0.465-0.597,0.398
	c-0.333-0.132-0.731-0.598-0.931-0.929c-0.065-0.266-0.265-0.929-0.331-1.262c-0.066-0.531-0.665-0.531-0.93-0.797
	c0,0-0.066,0-0.066-0.066C65.861,25.558,65.728,25.159,65.595,24.627 M53.777,20.445c-0.331,0.066-0.531,0.332-0.463,0.598
	c0.132,0.266,0.132,0.398,0.331,0.531c0.132,0.265,0.132,0.397,0,0.465c0,0.132,0,0.398,0.132,0.664
	c0.067,0.199,0.133,0.465,0.465,0.397c0.398-0.132,0.465-0.331,0.531-0.531c0.066-0.132,0.066-0.53,0.199-0.598
	c0.065-0.066,0.065-0.332,0-0.531c-0.199-0.132-0.532-0.73-0.73-0.796C54.176,20.445,53.977,20.378,53.777,20.445 M44.881,32.594
	c0.797,0.93,2.191,2.258,4.05,3.651c-0.2,0.266-0.598,0.798-0.598,1.063c0,0.332-0.066,1.128-0.199,1.328
	c-0.066,0.133-0.465,0.53-0.664,0.93c-0.066,0.199-0.132,0.53-0.332,0.797c-0.333,0.331-0.398,0.664-0.664,0.863
	c-0.465,0.332-0.863,0.464-0.996,0.531c-0.2,0-0.398,0-0.598,0.066c-0.2,0.199-0.797,0.199-1.062,0.199s-0.598-0.199-0.665-0.465
	c0-0.399-0.066-0.598-0.331-0.864c-0.267-0.266-0.399-0.996-0.532-1.327c-0.066-0.266-0.531-1.129-0.664-1.395
	c-0.066-0.199-0.332-0.795-0.265-1.46c0.132-0.397,0.333-0.996,0.333-1.46s0-0.996-0.067-1.394L44.881,32.594 M50.59,38.836
	c0.133,0.398,0.133,0.597-0.066,1.062c-0.133,0.399-0.332,0.796-0.464,1.062c-0.266,0.199-0.398,0.266-0.73,0.199
	c-0.133-0.066-0.199-0.265-0.199-0.597c0-0.199,0.133-0.598,0.133-0.864c0-0.266,0.398-0.598,0.531-0.598
	c0.067-0.133,0.333-0.265,0.532-0.398C50.391,38.571,50.59,38.571,50.59,38.836 M73.032,37.508c0.066,1.46-0.067,3.187-0.731,4.98
	c-0.332,0.398-0.597,0.862-1.062,1.194c-0.067-0.132-0.133-0.198-0.266-0.265c-0.398-0.132-0.996-0.397-1.328-0.465
	c-0.265,0-0.796,0-0.996,0.398c-0.133,0.199-0.331,0.266-0.597,0.266c-0.132,0-0.398,0.065-0.465,0.398
	c-0.067,0.265-0.2,0.796-0.531,0.796c-0.2,0.067-0.797,0.067-0.863,0.265c-0.066,0.133-0.199,0.665-0.465,0.864
	c-0.133,0.132-0.266,0.397-0.531,0.132c-0.266-0.199-0.398-0.73-0.531-0.863c-0.067-0.266-0.2-0.531-0.332-0.664
	c-0.2-0.199-0.398-0.266-0.398-0.53c0-0.465,0-0.598-0.133-0.863c-0.132-0.2-0.398-0.797-0.398-1.063
	c0.133-0.331,0.199-0.796,0.398-0.929c0.133-0.132,0.863-0.862,0.996-1.063c0.132-0.132,0.332-0.398,0.332-0.729
	c0.067-0.2,0.067-0.531,0.067-0.864c0-0.464-0.067-0.464,0.066-0.597c0.199-0.133,0.266-0.133,0.465-0.133
	c0.266,0,0.398,0,0.531-0.266c0.133-0.331,0.2-0.73,0.465-0.996c0.133-0.332,0.333-0.397,0.531-0.465
	c0.132-0.066,0.465-0.066,0.598-0.066c0.132,0.066,0.132,0.134,0.199,0.2c0,0.133,0.066,0.53,0.398,0.664
	c0.133,0.132,0.398,0.465,0.731,0.333c0.264-0.133,0.331-0.133,0.331-0.399c0-0.266,0-0.664,0-0.997
	c0-0.265-0.067-0.597,0.199-0.597c0.266,0,0.398,0.199,0.597,0.332c0.133,0.265,0.598,0.664,0.797,0.863
	c0.199,0.331,0.53,0.531,1.063,0.797C72.5,37.242,72.832,37.442,73.032,37.508 M74.957,32.529c0.333,0.398,0.464,0.597,0.598,0.796
	c0.332,0.2,0.531,0.333,0.664,0.531c0.2,0.4,0.465,0.864,0.598,0.997c0.266,0.265,0.597,0.664,0.863,0.598
	c0.266,0,0.266-0.066,0.266-0.333c0-0.265,0-0.531-0.332-0.929c-0.398-0.465-0.73-0.864-0.93-1.262
	c-0.265-0.333-0.598-0.929-0.996-0.996c-0.332-0.132-0.663-0.199-0.796,0C74.691,32.064,74.757,32.329,74.957,32.529 M70.043,28.878
	c-0.332,0.198-0.399,0.53-0.399,0.795c0,0.399,0,0.598,0.333,0.598c0.398,0.132,0.665,0,0.93-0.133
	c0.199-0.066,0.133-0.332,0.133-0.531c0-0.133-0.067-0.664-0.265-0.797C70.642,28.744,70.508,28.545,70.043,28.878 M55.438,19.583
	c2.124,0,4.05,0.265,5.709,0.664c1.063,1.925,1.926,3.718,2.524,5.577c-0.266,0.199-0.532,0.333-0.598,0.398
	c-0.132,0.067-0.398,0.266-0.598,0.598c-0.132,0.265-0.531,0.863-0.863,0.996c-0.199,0.199-0.664,0.397-0.664,0.73
	c0,0.266-0.133,0.863-0.199,1.063c-0.067,0.332-0.266,0.996-0.532,0.996c-0.266,0.066-0.266,0.066-0.465-0.199
	c-0.066-0.266-0.331-0.796-0.796-1.128c-0.199-0.332-0.73-1.063-0.796-1.261c-0.067-0.267-0.134-0.93-0.399-1.195
	c-0.266-0.465-0.531-0.531-0.796-0.797c-0.333-0.266-0.665-0.531-0.93-0.862c-0.332-0.399-0.664-0.598-1.195-0.664
	c-0.598,0-0.73,0-0.93,0.066c-0.332,0.133-0.531,0.199-0.531,0.598c0,0.198-0.065,0.398,0.067,0.531
	c0.199,0.132,0.664,0.73,0.995,0.796c0.266,0.066,0.597,0.332,0.664,0.464c0.199,0.067,0.531,0.466,0.531,0.665
	c0,0.132-0.066,0.331-0.332,0.531c-0.199,0.133-0.664,0.53-1.261,0.664c-0.665,0.067-1.395,0.266-1.661,0.133
	c-0.132-0.065-0.199-0.266-0.199-0.664c0.066-0.266,0-0.664-0.132-0.93c-0.266-0.266-0.532-0.996-0.665-1.395
	c-0.066-0.398-0.265-0.93-0.598-1.261c-0.266-0.199-0.598-0.333-0.929-0.265c-0.199,0.066-0.266,0.265-0.266,0.597
	c-0.066,0.266,0,0.73,0.066,1.195c0.066,0.266,0.132,0.73,0.132,0.996s0.133,1.195,0.266,1.527c0.066,0.266,0.464,1.195,0.531,1.394
	c0.199,0.133,0.332,0.531,0.598,0.598c0.265,0.132,0.331,0.132,0.531,0.132c0.266,0,0.664,0,0.664,0.134
	c0,0.131,0.133,0.332-0.066,0.464c-0.133,0.265-0.133,0.398-0.2,0.464c-0.065,0.067-0.332,0.333-1.195,0.73
	c-0.199,0.067-0.332,0.664-0.398,0.929c-0.066,0.133-0.199,0.465-0.398,0.797c-1.261-0.93-2.457-2.124-3.651-3.52
	c0.199-3.053,0.863-5.511,1.991-7.966c0.531,0,1.594,0,1.726,0.133c0.199-0.066,0.664-0.133,0.93-0.2
	c0.265-0.132,0.465-0.331,0.465-0.795c0-0.531-0.133-0.73-0.465-0.797c-0.333,0-0.93,0.067-1.593-0.199
	c0.066-0.266,0.198-0.531,0.332-0.797C51.52,19.848,53.313,19.583,55.438,19.583 M77.147,17.125c0,0.199-0.133,0.73-0.398,1.128
	c-0.133,0.531-0.597,0.93-0.863,1.195c-0.398,0.134-0.531,0.399-0.729,0.73c-0.266,0.133-0.598,0.266-0.598,0.531
	c-0.133,0.134,0.066,0.134,0.198,0.134c0.2,0.066,0.399,0,0.532,0c0.132-0.067,0.531-0.2,0.597,0.066
	c0.133,0.332,0.398,0.398,0.532,0c0-0.2,0.199-0.532,0.398-0.664c0.266-0.266,0.796-0.73,0.996-1.128
	c0.133-0.333,0.531-1.129,0.465-1.726c0-0.665-0.266-0.996-0.332-1.063c-0.133-0.132-0.332-0.397-0.531,0.067
	C77.347,16.661,77.214,16.727,77.147,17.125 M37.909,15.466l0.133-0.066c0.199-0.066,0.53-0.066,0.797-0.066
	c0.332,0.133,0.531,0.199,0.664,0.266c0.199,0.132,0.332,0.199,0.464,0c0.066-0.133,0.199-0.133,0.399-0.133
	c0.265,0,0.332,0,0.332-0.2c0-0.265,0-0.596-0.133-0.996c0.464-0.133,0.996-0.265,1.395-0.331c0.198,0.066,0.265,0.066,0.332,0.132
	c0.133,0.066,0.199,0.199,0.73,0.199c0.398,0,0.532-0.065,0.731-0.065c0.066,0,0.199,0,0.332-0.067l3.784,5.112
	c-0.199,0.267-0.265,0.465-0.464,0.731c-0.199-0.133-0.664-0.266-0.73-0.731c-0.066-0.332-0.199-0.729-0.266-0.929
	c-0.132-0.134-0.531-0.73-0.729-0.996c-0.199-0.199-0.465-0.73-0.797-0.929c-0.265-0.199-0.531-0.067-0.531,0.132
	c0.066,0.199,0,0.399,0.266,0.598c0,0.132,0.065,0.199,0.065,0.332c0,0.266,0.067,0.399,0.133,0.598
	c0.133,0.199,0.664,0.73,0.73,0.863c0.133,0.133,0.266,0.266,0.266,0.332c-0.133,0.199-0.133,0.267-0.199,0.199
	c-0.133-0.199-0.2-0.265-0.398-0.265c-0.132,0-0.199,0-0.199,0.066c0,0.267-0.066,0.532-0.133,0.731
	c-0.066,0.266-0.531,0.664-0.664,0.465c-0.067-0.067-0.067-0.199,0-0.465c0-0.266,0.066-0.532,0-0.93
	c-0.067-0.398-0.266-0.663-0.465-0.797c-0.266-0.266-0.333-0.664-0.398-0.996c-0.133-0.266-0.2-0.73-0.531-0.73
	c-0.399,0-0.598,0-0.665,0c-0.266,0.066-0.398,0.066-0.463,0.199c-0.133,0.266-0.133,0.399-0.598,0.465
	c-0.465,0.066-0.797,0-0.797,0.266s-0.132,0.531-0.398,0.531c-0.398,0-0.664-0.066-0.863,0.199
	c-0.333,0.134-0.398,0.399-0.531,0.201c-0.067-0.067-0.067-0.067-0.266-0.134c-0.398-0.266-0.531-0.266-0.598-0.332
	c-0.133-0.132-0.332-0.465-0.266-0.597c0.066-0.199,0.266-0.863,0.332-0.929c0-0.067,0-0.532,0-0.666
	C37.71,15.599,37.843,15.532,37.909,15.466 M45.412,24.627c-0.73,2.391-1.128,4.382-1.194,5.776L41.097,31.4
	c0-0.267,0.066-0.532,0.066-0.731c0.133-0.265,0.133-0.597-0.133-0.862c-0.133-0.199-0.266-0.133-0.398-0.133
	c-0.133-0.066-0.531-0.199-0.664-0.331c-0.066-0.266-0.199-0.464-0.598-0.464c-0.265,0-0.664-0.067-1.128,0.065
	c-0.531,0.066-0.333,0.332-0.93,0.133c-0.597-0.133-0.863-0.266-1.194-0.531c-0.266-0.265-0.466-0.398-0.863-1.063
	c-0.266-0.597-0.266-0.664-0.466-0.996c-0.265-0.133-0.331-0.332-0.331-0.664c0-0.265-0.134-0.929,0-1.328
	c0.331-0.465,0.664-1.063,0.729-1.395c0-0.266,0.399-0.862,0.598-1.061c0.2-0.2,0.333-0.465,0.398-0.598
	c0.2-0.067,0.665-0.332,0.797-0.531c0.266-0.066,0.531-0.465,0.664-0.532c0.199-0.065,0.464-0.199,0.598-0.331
	c0.199-0.066,0.266-0.199,0.331-0.265c0.067,0,0.133-0.133,0.466,0c0.132,0.066,0.397,0.265,0.863,0.265
	c0.266,0,0.664,0.132,0.996,0c0.266-0.066,0.597-0.066,0.798,0c0.132,0.132,0.265,0.199,0.597,0.398
	c0.133,0.265,0.332,0.399,0.265,0.664c-0.066,0.2-0.132,0.265-0.066,0.399c0.133,0.397,0.333,0.463,0.531,0.531
	c0.067,0.065,0.731,0,0.797,0.132c0.199,0.066,0.531,0.531,0.797,0.531c0.132,0,0.265,0.067,0.398-0.199
	c0.265-0.266,0.465-0.399,0.664-0.333c0.133,0,0.332,0.066,0.597,0.133C45.943,22.968,45.611,23.831,45.412,24.627 M73.761,13.606
	c-1.925-1.194-4.05-1.992-6.241-2.124c-0.796-1.793-1.991-3.386-3.386-4.781C64.4,6.569,64.534,6.37,64.666,6.37
	c0.199-0.133,0.265-0.266,0.597-0.266s0.465,0,0.93,0.133c0.266,0.133,0.598,0.333,1.062,0.2c0.332-0.067,0.465,0,0.665-0.067
	c0.132-0.067,0.597-0.332,0.796-0.399c0.066-0.065,0.2-0.199,0.466-0.265c1.792,1.061,3.386,2.456,4.979,3.982
	c-0.067,0.067-0.2,0.134-0.2,0.266c-0.398,0.531-0.73,0.664-0.863,0.864c-0.066,0.199-0.398,0.465-0.398,0.795
	c0,0.333-0.132,0.531,0.199,0.531c0.333,0.067,0.73,0.067,0.863,0.199c0.067,0.133,0.399,0.333,0.199,0.797
	C73.828,13.341,73.761,13.408,73.761,13.606 M55.438,17.258c-2.457,0-4.515,0.465-5.776,0.73l-3.585-4.847
	c0.199-0.066,0.398-0.066,0.531,0c0.199,0.134,0.266,0,0.598,0.199c0.398,0.133,0.929,0.133,1.128,0.133c0.133,0,0.532,0,0.73,0.133
	c0.199,0,0.797-0.133,0.996-0.266c0.266-0.199,0.132-0.331,0.066-0.465c-0.066-0.199-0.333-0.531,0.066-0.796
	c0.266-0.332,0.598-0.398,0.797-0.796c0.2-0.399,0.133-0.731,0-0.864c-0.133-0.067-0.398-0.067-0.531,0.066
	c-0.266,0.066-0.332,0.199-0.665,0.132c-0.066,0-0.464,0.067-0.664,0.2c-0.066,0.065-0.465,0.332-0.73,0.664
	c-0.066,0.199-0.266,0.93-0.464,0.996c-0.465,0.067-1.195-0.199-1.129-0.73c0.067-0.199,0.333-0.464,0.267-0.598
	c-0.2-0.2-0.267-0.266-0.465-0.2c-0.132,0-0.2,0-0.398,0c0.331-0.531,0.664-1.195,1.129-1.793c0.132-0.065,0.331-0.131,0.597-0.131
	c0.332-0.2,1.594-0.532,1.792-0.664c0.333-0.134,0.997-0.333,1.063-0.399c0.066-0.065,0.199-0.065,0.399,0
	c0.199,0,0.597,0.133,0.996-0.199c0.199-0.266,0.464-0.266,0.664-0.133c0.265,0.332,0.265,0.597,0.531,0.597
	c0.398,0,0.665,0.134,0.665,0.798c-0.067,0.464-0.267,0.596-0.267,0.796c0,0.199,0,0.73,0.267,0.73c0.199,0,0.397-0.066,0.464-0.066
	c0.066,0,0.132-0.134,0.199-0.134c0.133,0,0.597-0.265,0.73-0.464c0.199-0.266,0.664-0.73,0.929-0.796
	c0.265,0,0.664,0.132,0.93-0.266c0.199-0.333,0.464-0.464,0.597-0.464c0.199,0,0.199-0.134,0.399,0
	c0.199,0.132,0.73,0.066,0.863-0.134c0.266-0.066,0.266-0.132,0.465-0.132c0.597,0,0.73,0.132,0.93-0.133
	c0.199-0.332,0.199-0.332,0.531-0.332c0.199,0,0.266,0,0.398,0.398c0.066,0.199,0.332,0.199,0.332,0.465s0,0.598,0.133,0.664
	c0.133,0,0.398,0,0.664-0.331c0.067-0.067,0.2-0.265,0.333-0.464c1.194,1.394,1.991,2.788,2.522,3.917l-4.116,5.709
	C60.018,17.723,58.026,17.258,55.438,17.258 M43.354,7.499c0.066,0,0.265,0.066,0.265,0.066c-0.065,0.066-0.199,0.066-0.265,0.199
	c0,0.134,0.265,0.199,0.2,0.265c-0.067,0.067-0.333,0.199-0.465,0.399c-0.133,0.265,0,0.598-0.133,0.796
	c-0.132,0.067-0.2,0.067-0.2,0.133c0,0,0.2,0,0.266,0c0.067,0.132,0.067,0.331,0,0.398c0,0.132-0.066,0.199-0.266,0.266
	c-0.132,0.066-0.332,0.199-0.332,0.199c0,0.132,0.399,0.132,0.332,0.199c0,0.266-0.929,0.266-1.128,0.399
	c-0.73,0.065-1.261,0.397-1.261,0.132c-0.067-0.332,1.127-0.598,1.127-0.73c0,0-0.132,0-0.199-0.133
	c-0.133,0-0.199-0.066-0.133-0.133c0-0.067,0.332-0.132,0.332-0.132s0.133-0.067,0.133-0.134c0.067-0.066-0.066-0.331-0.066-0.397
	c0.066-0.067,0.331-0.067,0.597-0.134c0.133-0.131,0.133-0.331,0.199-0.464c0-0.199-0.066-0.265-0.066-0.331
	c0.066-0.134,0.199-0.134,0.265-0.2c0.199-0.133,0.067-0.265,0.067-0.265c0.132-0.134,0.398-0.134,0.398-0.134
	c0.067-0.133,0.133-0.133,0.133-0.133S43.221,7.499,43.354,7.499 M40.299,8.76c0.266-0.198,0.465-0.066,0.598,0
	c0.067,0,0,0.199-0.199,0.333c-0.066,0.132-0.199,0.53-0.399,0.664c-0.199,0.132-0.332,0.199-0.531,0.266
	c-0.333,0.066-0.398-0.532-0.265-0.73c0.332-0.067,0.332-0.199,0.398-0.265C39.968,8.959,40.034,8.827,40.299,8.76"/>
<path fill-rule="evenodd" clip-rule="evenodd" fill="#FFFFFF" d="M55.447,0c15.536,0,27.949,12.482,27.949,27.951
	c0,15.403-12.413,27.885-27.949,27.885c-15.403,0-27.818-12.482-27.818-27.885C27.628,12.482,40.043,0,55.447,0 M61.821,36.515
	c-2.125,1.461-3.984,2.324-5.245,2.855v7.104c1.726,0.929,4.382,2.058,7.568,1.925c1.593-0.598,3.12-1.262,4.581-2.258
	c1.461-0.996,2.523-2.257,3.586-3.652c1.195-3.054,0.796-5.842,0.465-7.768l-6.706-2.125C65.206,33.594,63.746,35.055,61.821,36.515
	 M66.048,25.916c0.405,1.799,0.686,3.43,0.752,4.492l6.64,2.19c1.46-1.328,3.318-3.519,4.249-6.573c0-1.858-0.2-3.318-0.797-5.112
	c-0.598-1.725-1.395-2.986-2.324-4.447c-0.398-0.333-2.164-2.194-7.314-2.806c-1.366,1.864-2.733,3.726-4.102,5.588
	C64.327,21.215,65.433,23.775,66.048,25.916 M48.938,36.25c-1.309-0.979-3.024-2.456-4.031-3.638l-0.001-0.004l-6.656,2.115
	c-0.398,1.926-0.73,4.713,0.398,7.768c1.128,1.395,2.124,2.656,3.651,3.652c1.461,1.128,2.789,1.66,4.515,2.258
	c3.253,0.132,5.843-0.996,7.636-1.925v-7.104C52.746,38.689,50.224,37.527,48.938,36.25 M50.135,34.392
	c1.527,1.194,3.253,2.123,5.312,3.054c3.718-1.527,6.44-3.519,9.096-6.573c-0.132-1.859-0.532-3.452-0.857-5.044
	c-0.642-1.765-1.474-3.792-2.507-5.523c-3.075-1.001-7.704-0.874-11.312-0.056c-1.355,2.779-3.141,5.723-3.395,10.635
	C47.797,32.369,48.735,33.225,50.135,34.392 M44.209,30.388L44.209,30.388c0.507-4.208,1.593-7.772,3.669-11.118l0.009-0.012
	l-4.125-5.582c-1.992,0.2-4.714,0.797-7.303,2.79c-0.996,1.46-1.859,2.788-2.391,4.447c-0.531,1.794-0.73,3.254-0.73,5.112
	c0.863,3.055,2.789,5.246,4.249,6.573L44.209,30.388 M49.687,18.014l0.013-0.008c4.518-1.052,8.599-0.752,11.675,0.077
	c-0.182-0.08,4.031-5.646,4.106-5.795c-0.72-1.38-1.811-3.177-2.532-3.922l0,0c-0.73-0.796-1.461-1.527-2.39-2.059
	c-1.727-0.596-3.32-0.862-5.112-0.862c-1.659,0-3.253,0.266-4.979,0.862c-2.722,1.727-4.208,4.299-4.938,6.025L49.687,18.014
	 M48.476,5.311c-0.398-0.398-1.594-1.062-3.386-1.327c-3.453,1.526-6.64,3.917-9.229,6.706c-0.265,1.792,0.133,3.054,0.266,3.519
	c2.19-1.395,4.78-2.523,7.37-2.723C44.625,9.029,46.417,6.838,48.476,5.311 M34.6,15.602c-0.133-0.464-0.333-1.527-0.2-3.054
	c-1.593,2.191-2.854,4.647-3.651,7.303c-0.863,2.655-1.328,5.444-1.328,8.099c0.73-1.394,1.526-2.125,1.925-2.323
	c0.133-1.792,0.265-3.519,0.797-5.246C32.741,18.59,33.67,17.129,34.6,15.602 M31.811,27.686c-0.464,0.265-1.526,1.061-2.257,2.722
	c0.398,3.785,1.593,7.503,3.585,10.821c1.461,0.863,2.855,0.93,3.386,0.863c-0.73-2.522-0.929-5.245-0.465-7.834
	C34.068,32.533,32.674,30.143,31.811,27.686 M37.388,44.019c-0.531,0-1.594-0.133-2.988-0.73c1.594,2.124,3.519,4.049,5.71,5.775
	c2.323,1.659,4.78,2.855,7.303,3.651c-0.93-1.128-1.46-2.058-1.527-2.588c-1.727-0.598-3.319-1.329-4.78-2.392
	C39.712,46.607,38.45,45.346,37.388,44.019 M47.944,50.325c0.067,0.531,0.532,1.727,1.859,3.054c3.652,0.798,7.702,0.798,11.42,0
	c1.262-1.327,1.792-2.522,1.859-3.054c-2.589-0.066-5.312-0.598-7.635-1.992C53.255,49.727,50.533,50.259,47.944,50.325
	 M65.14,50.127c-0.066,0.53-0.597,1.46-1.527,2.588c2.522-0.796,4.979-1.992,7.17-3.651c2.258-1.726,4.25-3.651,5.843-5.775
	c-1.394,0.597-2.456,0.73-2.988,0.73c-1.062,1.328-2.323,2.588-3.784,3.717C68.459,48.798,66.866,49.529,65.14,50.127
	 M74.435,42.092c0.598,0.067,1.859,0,3.452-0.863c1.992-3.318,3.188-7.037,3.585-10.821c-0.73-1.661-1.858-2.457-2.257-2.722
	c-0.863,2.457-2.39,4.847-4.315,6.572C75.431,36.848,75.231,39.57,74.435,42.092 M79.613,25.627c0.465,0.199,1.261,0.93,1.991,2.323
	c0-2.655-0.464-5.444-1.327-8.099c-0.93-2.656-2.124-5.112-3.652-7.303c0.132,1.526-0.066,2.589-0.332,3.054
	c1.062,1.527,1.859,2.988,2.39,4.78C79.282,22.108,79.547,23.835,79.613,25.627 M64.14,6.702c0.131-0.003,2.727,2.958,3.376,4.792
	c3.094,0.154,5.596,1.727,7.384,2.714c0.133-0.465,0.464-1.727,0.265-3.519c-2.656-2.789-5.776-5.179-9.428-6.706
	c-1.727,0.266-2.788,0.929-3.253,1.327C63.081,5.708,63.676,6.237,64.14,6.702 M60.692,4.315c0.464-0.332,1.394-0.863,2.921-1.195
	c-2.523-0.797-5.311-1.262-8.166-1.262c-2.789,0-5.51,0.464-8.034,1.262c1.526,0.332,2.457,0.864,2.789,1.195
	c1.792-0.465,3.452-0.796,5.245-0.796C57.306,3.519,59.032,3.851,60.692,4.315"/>
<polygon fill-rule="evenodd" clip-rule="evenodd" fill="#182D89" points="36.98,60.214 36.98,88.365 45.876,88.365 45.876,78.272 
	51.985,78.272 54.442,72.098 45.876,72.098 45.876,66.32 56.3,66.32 58.624,60.214 36.98,60.214 "/>
<polygon fill-rule="evenodd" clip-rule="evenodd" fill="#182D89" points="61.346,88.365 70.109,88.365 70.109,60.214 61.346,60.214 
	61.346,88.365 "/>
<path fill-rule="evenodd" clip-rule="evenodd" fill="#182D89" d="M103.305,60.28l-10.158,28.15h8.499l1.129-3.851h9.825l1.195,3.851
	h8.697l-10.158-28.15H103.305 M107.686,67.517l-3.451,11.685h6.904L107.686,67.517"/>
<polygon fill-rule="evenodd" clip-rule="evenodd" fill="#182D89" points="76.285,60.214 76.285,88.365 85.18,88.365 85.18,78.272 
	91.354,78.272 93.811,72.098 85.18,72.098 85.18,66.32 95.604,66.32 97.927,60.214 76.285,60.214 "/>
<path fill-rule="evenodd" clip-rule="evenodd" fill="#182D89" d="M118.165,60.252c0.444,0,0.877,0.113,1.3,0.341
	c0.423,0.229,0.753,0.554,0.988,0.979c0.234,0.425,0.354,0.866,0.354,1.328c0,0.454-0.115,0.893-0.35,1.312
	c-0.232,0.422-0.559,0.748-0.979,0.981c-0.419,0.232-0.856,0.349-1.314,0.349c-0.459,0-0.897-0.116-1.316-0.349
	c-0.419-0.233-0.747-0.56-0.979-0.981c-0.234-0.419-0.35-0.857-0.35-1.312c0-0.462,0.118-0.903,0.355-1.328
	c0.235-0.425,0.566-0.75,0.99-0.979C117.287,60.365,117.722,60.252,118.165,60.252 M118.165,60.69c-0.371,0-0.733,0.096-1.084,0.286
	c-0.354,0.189-0.628,0.463-0.826,0.814c-0.199,0.354-0.297,0.724-0.297,1.108c0,0.38,0.097,0.744,0.292,1.094
	c0.195,0.348,0.468,0.621,0.817,0.816c0.351,0.195,0.716,0.294,1.098,0.294s0.747-0.099,1.097-0.294
	c0.352-0.195,0.622-0.469,0.816-0.816c0.194-0.35,0.29-0.714,0.29-1.094c0-0.385-0.098-0.754-0.295-1.108
	c-0.198-0.352-0.474-0.625-0.825-0.814C118.895,60.786,118.532,60.69,118.165,60.69 M117.005,64.358v-2.844h0.977
	c0.335,0,0.577,0.024,0.727,0.078c0.149,0.052,0.269,0.144,0.359,0.274c0.088,0.132,0.131,0.271,0.131,0.417
	c0,0.208-0.074,0.389-0.222,0.544c-0.148,0.155-0.347,0.24-0.592,0.26c0.101,0.042,0.182,0.092,0.242,0.15
	c0.114,0.112,0.255,0.3,0.422,0.564l0.347,0.556h-0.562l-0.253-0.448c-0.198-0.352-0.356-0.572-0.48-0.662
	c-0.082-0.064-0.206-0.098-0.367-0.098h-0.269v1.208H117.005 M117.465,62.759h0.556c0.268,0,0.448-0.041,0.545-0.12
	c0.098-0.078,0.146-0.184,0.146-0.314c0-0.085-0.024-0.16-0.07-0.227c-0.048-0.066-0.112-0.117-0.194-0.148
	c-0.083-0.034-0.236-0.05-0.461-0.05h-0.521V62.759"/>
</svg>
